<svg width="780" height="660" xmlns="http://www.w3.org/2000/svg" font-family="Arial, sans-serif">
  <defs>
    <marker id="arrow" markerWidth="10" markerHeight="7" refX="9" refY="3.5" orient="auto">
      <polygon points="0 0, 10 3.5, 0 7" fill="#6B7280"/>
    </marker>
  </defs>

  <!-- Background -->
  <rect width="780" height="660" fill="#F8FAFC"/>

  <!-- Title -->
  <text x="390" y="45" text-anchor="middle" font-size="18" font-weight="bold" fill="#1F2937">ERD – Taaltrainer</text>

  <!-- ===== RELATIONSHIP LINES (drawn under tables) ===== -->

  <!-- 1. users.id (1) -> woordenlijsten.created_by (N) -->
  <path d="M240,130 L380,130 L380,242 L520,242" fill="none" stroke="#9CA3AF" stroke-width="2" marker-end="url(#arrow)"/>
  <text x="248" y="124" font-size="12" font-weight="bold" fill="#2563EB">1</text>
  <text x="506" y="238" font-size="12" font-weight="bold" fill="#2563EB">N</text>

  <!-- 2. woordenlijsten.id (1) -> woorden.woordenlijst_id (N) straight down -->
  <path d="M630,284 L630,390" fill="none" stroke="#9CA3AF" stroke-width="2" marker-end="url(#arrow)"/>
  <text x="636" y="298" font-size="12" font-weight="bold" fill="#2563EB">1</text>
  <text x="636" y="382" font-size="12" font-weight="bold" fill="#2563EB">N</text>

  <!-- 3. users.id (1) -> resultaten.user_id (N) straight down -->
  <path d="M40,130 L12,130 L12,468 L40,468" fill="none" stroke="#9CA3AF" stroke-width="2" marker-end="url(#arrow)"/>
  <text x="16" y="124" font-size="12" font-weight="bold" fill="#2563EB">1</text>
  <text x="16" y="462" font-size="12" font-weight="bold" fill="#2563EB">N</text>

  <!-- 4. woordenlijsten.id (1) -> resultaten.woordenlijst_id (N) cross -->
  <path d="M560,284 L560,345 L268,345 L268,496 L240,496" fill="none" stroke="#9CA3AF" stroke-width="2" stroke-dasharray="6,3" marker-end="url(#arrow)"/>
  <text x="548" y="298" font-size="12" font-weight="bold" fill="#2563EB">1</text>
  <text x="246" y="490" font-size="12" font-weight="bold" fill="#2563EB">N</text>


  <!-- ===== USERS TABLE ===== -->
  <rect x="40" y="80" width="200" height="176" fill="white" stroke="#D1D5DB" stroke-width="1.5" rx="5"/>
  <rect x="40" y="80" width="200" height="36" fill="#2563EB" rx="5"/>
  <rect x="40" y="98" width="200" height="18" fill="#2563EB"/>
  <text x="140" y="103" text-anchor="middle" font-size="14" font-weight="bold" fill="white">users</text>

  <rect x="41" y="116" width="198" height="28" fill="white"/>
  <line x1="41" y1="116" x2="239" y2="116" stroke="#E5E7EB"/>
  <text x="52" y="134" font-size="12" font-weight="bold" fill="#1F2937">PK  id</text>
  <text x="232" y="134" text-anchor="end" font-size="11" fill="#9CA3AF">INT</text>

  <rect x="41" y="144" width="198" height="28" fill="#F9FAFB"/>
  <line x1="41" y1="144" x2="239" y2="144" stroke="#E5E7EB"/>
  <text x="52" y="162" font-size="12" fill="#1F2937">username</text>
  <text x="232" y="162" text-anchor="end" font-size="11" fill="#9CA3AF">VARCHAR(50)</text>

  <rect x="41" y="172" width="198" height="28" fill="white"/>
  <line x1="41" y1="172" x2="239" y2="172" stroke="#E5E7EB"/>
  <text x="52" y="190" font-size="12" fill="#1F2937">password_hash</text>
  <text x="232" y="190" text-anchor="end" font-size="11" fill="#9CA3AF">VARCHAR</text>

  <rect x="41" y="200" width="198" height="28" fill="#F9FAFB"/>
  <line x1="41" y1="200" x2="239" y2="200" stroke="#E5E7EB"/>
  <text x="52" y="218" font-size="12" fill="#1F2937">role</text>
  <text x="232" y="218" text-anchor="end" font-size="11" fill="#9CA3AF">ENUM</text>

  <rect x="41" y="228" width="198" height="28" fill="white"/>
  <line x1="41" y1="228" x2="239" y2="228" stroke="#E5E7EB"/>
  <text x="52" y="246" font-size="12" fill="#1F2937">created_at</text>
  <text x="232" y="246" text-anchor="end" font-size="11" fill="#9CA3AF">DATETIME</text>


  <!-- ===== WOORDENLIJSTEN TABLE ===== -->
  <rect x="520" y="80" width="200" height="204" fill="white" stroke="#D1D5DB" stroke-width="1.5" rx="5"/>
  <rect x="520" y="80" width="200" height="36" fill="#2563EB" rx="5"/>
  <rect x="520" y="98" width="200" height="18" fill="#2563EB"/>
  <text x="620" y="103" text-anchor="middle" font-size="13" font-weight="bold" fill="white">woordenlijsten</text>

  <rect x="521" y="116" width="198" height="28" fill="white"/>
  <line x1="521" y1="116" x2="719" y2="116" stroke="#E5E7EB"/>
  <text x="532" y="134" font-size="12" font-weight="bold" fill="#1F2937">PK  id</text>
  <text x="712" y="134" text-anchor="end" font-size="11" fill="#9CA3AF">INT</text>

  <rect x="521" y="144" width="198" height="28" fill="#F9FAFB"/>
  <line x1="521" y1="144" x2="719" y2="144" stroke="#E5E7EB"/>
  <text x="532" y="162" font-size="12" fill="#1F2937">naam</text>
  <text x="712" y="162" text-anchor="end" font-size="11" fill="#9CA3AF">VARCHAR(100)</text>

  <rect x="521" y="172" width="198" height="28" fill="white"/>
  <line x1="521" y1="172" x2="719" y2="172" stroke="#E5E7EB"/>
  <text x="532" y="190" font-size="12" fill="#1F2937">taal_van</text>
  <text x="712" y="190" text-anchor="end" font-size="11" fill="#9CA3AF">VARCHAR(50)</text>

  <rect x="521" y="200" width="198" height="28" fill="#F9FAFB"/>
  <line x1="521" y1="200" x2="719" y2="200" stroke="#E5E7EB"/>
  <text x="532" y="218" font-size="12" fill="#1F2937">taal_naar</text>
  <text x="712" y="218" text-anchor="end" font-size="11" fill="#9CA3AF">VARCHAR(50)</text>

  <rect x="521" y="228" width="198" height="28" fill="white"/>
  <line x1="521" y1="228" x2="719" y2="228" stroke="#E5E7EB"/>
  <text x="532" y="246" font-size="12" font-style="italic" fill="#B45309">FK  created_by</text>
  <text x="712" y="246" text-anchor="end" font-size="11" fill="#9CA3AF">INT</text>

  <rect x="521" y="256" width="198" height="28" fill="#F9FAFB"/>
  <line x1="521" y1="256" x2="719" y2="256" stroke="#E5E7EB"/>
  <text x="532" y="274" font-size="12" fill="#1F2937">created_at</text>
  <text x="712" y="274" text-anchor="end" font-size="11" fill="#9CA3AF">DATETIME</text>


  <!-- ===== WOORDEN TABLE ===== -->
  <rect x="520" y="390" width="200" height="148" fill="white" stroke="#D1D5DB" stroke-width="1.5" rx="5"/>
  <rect x="520" y="390" width="200" height="36" fill="#2563EB" rx="5"/>
  <rect x="520" y="408" width="200" height="18" fill="#2563EB"/>
  <text x="620" y="413" text-anchor="middle" font-size="14" font-weight="bold" fill="white">woorden</text>

  <rect x="521" y="426" width="198" height="28" fill="white"/>
  <line x1="521" y1="426" x2="719" y2="426" stroke="#E5E7EB"/>
  <text x="532" y="444" font-size="12" font-weight="bold" fill="#1F2937">PK  id</text>
  <text x="712" y="444" text-anchor="end" font-size="11" fill="#9CA3AF">INT</text>

  <rect x="521" y="454" width="198" height="28" fill="#F9FAFB"/>
  <line x1="521" y1="454" x2="719" y2="454" stroke="#E5E7EB"/>
  <text x="532" y="472" font-size="12" font-style="italic" fill="#B45309">FK  woordenlijst_id</text>
  <text x="712" y="472" text-anchor="end" font-size="11" fill="#9CA3AF">INT</text>

  <rect x="521" y="482" width="198" height="28" fill="white"/>
  <line x1="521" y1="482" x2="719" y2="482" stroke="#E5E7EB"/>
  <text x="532" y="500" font-size="12" fill="#1F2937">woord</text>
  <text x="712" y="500" text-anchor="end" font-size="11" fill="#9CA3AF">VARCHAR(100)</text>

  <rect x="521" y="510" width="198" height="28" fill="#F9FAFB"/>
  <line x1="521" y1="510" x2="719" y2="510" stroke="#E5E7EB"/>
  <text x="532" y="528" font-size="12" fill="#1F2937">vertaling</text>
  <text x="712" y="528" text-anchor="end" font-size="11" fill="#9CA3AF">VARCHAR(100)</text>


  <!-- ===== RESULTATEN TABLE ===== -->
  <rect x="40" y="390" width="200" height="204" fill="white" stroke="#D1D5DB" stroke-width="1.5" rx="5"/>
  <rect x="40" y="390" width="200" height="36" fill="#2563EB" rx="5"/>
  <rect x="40" y="408" width="200" height="18" fill="#2563EB"/>
  <text x="140" y="413" text-anchor="middle" font-size="14" font-weight="bold" fill="white">resultaten</text>

  <rect x="41" y="426" width="198" height="28" fill="white"/>
  <line x1="41" y1="426" x2="239" y2="426" stroke="#E5E7EB"/>
  <text x="52" y="444" font-size="12" font-weight="bold" fill="#1F2937">PK  id</text>
  <text x="232" y="444" text-anchor="end" font-size="11" fill="#9CA3AF">INT</text>

  <rect x="41" y="454" width="198" height="28" fill="#F9FAFB"/>
  <line x1="41" y1="454" x2="239" y2="454" stroke="#E5E7EB"/>
  <text x="52" y="472" font-size="12" font-style="italic" fill="#B45309">FK  user_id</text>
  <text x="232" y="472" text-anchor="end" font-size="11" fill="#9CA3AF">INT</text>

  <rect x="41" y="482" width="198" height="28" fill="white"/>
  <line x1="41" y1="482" x2="239" y2="482" stroke="#E5E7EB"/>
  <text x="52" y="500" font-size="12" font-style="italic" fill="#B45309">FK  woordenlijst_id</text>
  <text x="232" y="500" text-anchor="end" font-size="11" fill="#9CA3AF">INT</text>

  <rect x="41" y="510" width="198" height="28" fill="#F9FAFB"/>
  <line x1="41" y1="510" x2="239" y2="510" stroke="#E5E7EB"/>
  <text x="52" y="528" font-size="12" fill="#1F2937">score</text>
  <text x="232" y="528" text-anchor="end" font-size="11" fill="#9CA3AF">INT</text>

  <rect x="41" y="538" width="198" height="28" fill="white"/>
  <line x1="41" y1="538" x2="239" y2="538" stroke="#E5E7EB"/>
  <text x="52" y="556" font-size="12" fill="#1F2937">totaal</text>
  <text x="232" y="556" text-anchor="end" font-size="11" fill="#9CA3AF">INT</text>

  <rect x="41" y="566" width="198" height="28" fill="#F9FAFB"/>
  <line x1="41" y1="566" x2="239" y2="566" stroke="#E5E7EB"/>
  <text x="52" y="584" font-size="12" fill="#1F2937">created_at</text>
  <text x="232" y="584" text-anchor="end" font-size="11" fill="#9CA3AF">DATETIME</text>


  <!-- ===== LEGEND ===== -->
  <rect x="300" y="555" width="175" height="75" fill="white" stroke="#E5E7EB" stroke-width="1" rx="4"/>
  <text x="312" y="574" font-size="12" font-weight="bold" fill="#1F2937">Legenda</text>
  <text x="312" y="593" font-size="12" font-weight="bold" fill="#1F2937">PK</text>
  <text x="332" y="593" font-size="12" fill="#6B7280">= Primary Key</text>
  <text x="312" y="612" font-size="12" font-style="italic" fill="#B45309">FK</text>
  <text x="332" y="612" font-size="12" fill="#6B7280">= Foreign Key</text>
  <line x1="312" y1="620" x2="365" y2="620" stroke="#9CA3AF" stroke-width="2" stroke-dasharray="6,3" marker-end="url(#arrow)"/>
  <text x="370" y="624" font-size="12" fill="#6B7280">= optionele relatie</text>
</svg>
